<svg id="_0310_slot_machine" data-name="0310_slot_machine" xmlns="http://www.w3.org/2000/svg" viewBox="0 0 500 500" data-imageid="slot-machine-52" imageName="Slot Machine" class="illustrations_image" style="width: 167px;"><defs><style>.cls-1_slot-machine-52{fill:#68e1fd;}.cls-2_slot-machine-52{fill:#231f20;}.cls-3_slot-machine-52{fill:#d1d3d4;}.cls-4_slot-machine-52{fill:#fff;}</style></defs><g id="Slot_Machine_slot-machine-52" data-name="Slot Machine"><path class="cls-1_slot-machine-52 targetColor" d="M223.27,103.8h8.14A10.18,10.18,0,0,1,241.59,114v15.91a0,0,0,0,1,0,0h-28.5a0,0,0,0,1,0,0V114a10.18,10.18,0,0,1,10.18-10.18Z" style="fill: rgb(104, 225, 253);"/><path class="cls-2_slot-machine-52" d="M241.59,130.52h-28.5a.64.64,0,0,1-.64-.64V118.05a14.89,14.89,0,1,1,29.78,0v11.83A.64.64,0,0,1,241.59,130.52Zm-27.86-1.28H241V118.05a13.61,13.61,0,1,0-27.22,0Z"/><polygon class="cls-3_slot-machine-52" points="328.49 273.91 333.49 273.91 352.17 187.97 358.15 189.81 335.62 294.89 328.49 294.89 328.49 273.91"/><path class="cls-2_slot-machine-52" d="M335.62,295.59h-7.13a.7.7,0,0,1-.7-.7v-21a.7.7,0,0,1,.7-.7h4.44l18.56-85.38a.69.69,0,0,1,.89-.52l6,1.84a.71.71,0,0,1,.48.81L336.3,295A.69.69,0,0,1,335.62,295.59Zm-6.43-1.4h5.86l22.28-103.9-4.63-1.42-18.52,85.19a.71.71,0,0,1-.69.55h-4.3Z"/><circle class="cls-1_slot-machine-52 targetColor" cx="358.15" cy="180.1" r="13.62" style="fill: rgb(104, 225, 253);"/><path class="cls-2_slot-machine-52" d="M358.15,194.36a14.26,14.26,0,1,1,14.27-14.26A14.28,14.28,0,0,1,358.15,194.36Zm0-27.24a13,13,0,1,0,13,13A13,13,0,0,0,358.15,167.12Z"/><path class="cls-2_slot-machine-52" d="M326.07,301.15H315.94V267.37h10.13a3.33,3.33,0,0,1,3.47,2.64c.44,3.48.44,25,0,28.49A3.33,3.33,0,0,1,326.07,301.15Z"/><path class="cls-2_slot-machine-52" d="M326.07,301.85H315.94a.71.71,0,0,1-.7-.7V267.37a.7.7,0,0,1,.7-.7h10.13a4,4,0,0,1,4.16,3.26c.45,3.48.45,25.18,0,28.66A4,4,0,0,1,326.07,301.85Zm-9.43-1.4h9.43a2.63,2.63,0,0,0,2.77-2c.44-3.44.44-24.88,0-28.32a2.62,2.62,0,0,0-2.77-2h-9.43Z"/><rect class="cls-4_slot-machine-52" x="209.89" y="123.37" width="34.89" height="10.6"/><path class="cls-2_slot-machine-52" d="M244.79,134.67h-34.9a.71.71,0,0,1-.7-.7v-10.6a.7.7,0,0,1,.7-.7h34.9a.7.7,0,0,1,.7.7V134A.71.71,0,0,1,244.79,134.67Zm-34.2-1.4h33.5v-9.2h-33.5Z"/><rect class="cls-4_slot-machine-52" x="138.99" y="171.66" width="176.7" height="148.28"/><path class="cls-2_slot-machine-52" d="M315.69,320.64H139a.7.7,0,0,1-.7-.7V171.66a.7.7,0,0,1,.7-.7h176.7a.7.7,0,0,1,.7.7V319.94A.7.7,0,0,1,315.69,320.64Zm-176-1.4H315V172.36H139.69Z"/><rect class="cls-1_slot-machine-52 targetColor" x="128.28" y="331.68" width="198.11" height="72.15" style="fill: rgb(104, 225, 253);"/><path class="cls-2_slot-machine-52" d="M326.4,404.46H128.28a.64.64,0,0,1-.64-.63V331.68a.64.64,0,0,1,.64-.64H326.4a.64.64,0,0,1,.64.64v72.15A.64.64,0,0,1,326.4,404.46Zm-197.48-1.27H325.76V332.32H128.92Z"/><polygon class="cls-3_slot-machine-52" points="128.28 331.68 326.4 331.68 315.69 319.94 138.99 319.94 128.28 331.68"/><path class="cls-2_slot-machine-52" d="M326.4,332.38H128.28a.7.7,0,0,1-.51-1.18l10.7-11.73a.74.74,0,0,1,.52-.23h176.7a.71.71,0,0,1,.51.23l10.71,11.73a.71.71,0,0,1,.13.76A.73.73,0,0,1,326.4,332.38ZM129.87,331H324.81l-9.43-10.34H139.3Z"/><path class="cls-4_slot-machine-52" d="M315.69,171.66H139s19.3-41,88.35-41S315.69,171.66,315.69,171.66Z"/><path class="cls-2_slot-machine-52" d="M315.69,172.36H139a.7.7,0,0,1-.59-.32.72.72,0,0,1,0-.68c.19-.41,20.28-41.41,89-41.41,35.86,0,58.13,11.23,70.49,20.65,13.44,10.24,18.29,20.34,18.49,20.76a.72.72,0,0,1,0,.68A.7.7,0,0,1,315.69,172.36ZM140.16,171H314.52c-3.56-6.25-25.46-39.61-87.18-39.61-35.42,0-57.38,11.05-69.57,20.31C147,159.86,141.73,168.15,140.16,171Z"/><path class="cls-1_slot-machine-52 targetColor" d="M297.18,164.38c-7.19-9-27.29-27.76-69.84-27.76s-62.65,18.78-69.84,27.76Z" style="fill: rgb(104, 225, 253);"/><path class="cls-3_slot-machine-52" d="M303.65,309.83H151a.7.7,0,0,1-.7-.7V222.72a.7.7,0,0,1,.7-.7H303.65a.7.7,0,0,1,.7.7v86.41A.7.7,0,0,1,303.65,309.83Zm-151.92-1.4H303v-85H151.73Z"/><path class="cls-3_slot-machine-52" d="M298.47,304.48H156.21a.7.7,0,0,1-.7-.7v-75.7a.7.7,0,0,1,.7-.7H298.47a.7.7,0,0,1,.7.7v75.7A.7.7,0,0,1,298.47,304.48Zm-141.56-1.4H297.77v-74.3H156.91Z"/><path class="cls-2_slot-machine-52" d="M315.69,212.77H139a.7.7,0,1,1,0-1.4h176.7a.7.7,0,1,1,0,1.4Z"/><path class="cls-4_slot-machine-52" d="M297.62,371.63H157.05a.72.72,0,0,1-.64-.41c-1.63-3.67-5.53-6.42-10.44-7.36a.71.71,0,0,1-.57-.69V347.34a.7.7,0,0,1,.57-.69c4.91-.94,8.81-3.69,10.44-7.36a.72.72,0,0,1,.64-.41H297.62a.69.69,0,0,1,.64.41c1.64,3.67,5.54,6.42,10.45,7.36a.7.7,0,0,1,.57.69v15.83a.71.71,0,0,1-.57.69c-4.91.94-8.81,3.69-10.45,7.36A.69.69,0,0,1,297.62,371.63Zm-140.12-1.4H297.18c1.85-3.73,5.79-6.54,10.7-7.63V347.91c-4.91-1.09-8.85-3.9-10.7-7.63H157.5c-1.85,3.73-5.79,6.54-10.7,7.63V362.6C151.71,363.69,155.65,366.5,157.5,370.23Z"/><rect class="cls-1_slot-machine-52 targetColor" x="148.89" y="182.43" width="156.9" height="22.04" rx="2.88" style="fill: rgb(104, 225, 253);"/><rect class="cls-1_slot-machine-52 targetColor" x="166.07" y="238.69" width="40.85" height="54.47" style="fill: rgb(104, 225, 253);"/><path class="cls-2_slot-machine-52" d="M206.91,293.8H166.07a.64.64,0,0,1-.64-.64V238.69a.63.63,0,0,1,.64-.63h40.84a.63.63,0,0,1,.64.63v54.47A.64.64,0,0,1,206.91,293.8Zm-40.2-1.28h39.56V239.33H166.71Z"/><path class="cls-4_slot-machine-52" d="M186.9,256.82s-7.93-6.11-14.18.91.09,19,2.07,21.28a11.6,11.6,0,0,0,6.09,4c2.44.54,4.59-1.75,4.89-1.75s.52,2.65,5.71,1.82,12-9.82,11.43-18.67-5.49-9-9-8.54Z"/><path class="cls-2_slot-machine-52" d="M189.62,284c-2.36,0-3.43-.89-4-1.74-.93.68-2.76,1.94-4.86,1.48a12.25,12.25,0,0,1-6.47-4.25c-2.28-2.63-8.6-14.88-2.07-22.21,6-6.7,13.45-2.15,14.89-1.17l6.75-.88c2-.27,4.61-.36,6.66,1.33,1.82,1.48,2.87,4.12,3.12,7.85.62,8.91-6.25,18.49-12,19.42A13.68,13.68,0,0,1,189.62,284Zm-3.85-3.39a1,1,0,0,1,.81.59c.31.55,1,1.84,4.79,1.24,4.61-.74,11.44-9.24,10.85-17.93-.23-3.33-1.11-5.64-2.61-6.87s-3.85-1.26-5.6-1l-7,.92a.75.75,0,0,1-.52-.14c-.3-.23-7.49-5.61-13.23.83s0,18,2.08,20.35a10.91,10.91,0,0,0,5.71,3.81c1.55.34,3-.74,3.83-1.32C185.27,280.74,185.47,280.59,185.77,280.59Z"/><path class="cls-2_slot-machine-52" d="M187.39,260.06h-.07a.7.7,0,0,1-.63-.77A16.66,16.66,0,0,0,183.58,249a.7.7,0,1,1,1.15-.8,17.88,17.88,0,0,1,3.36,11.26A.7.7,0,0,1,187.39,260.06Z"/><path class="cls-2_slot-machine-52" d="M187.57,260.46a5.83,5.83,0,0,1-2.49-.51,3.9,3.9,0,0,1-2-1.77.7.7,0,0,1,1.31-.5c.1.17,1.74,2.59,6.48.62a.7.7,0,1,1,.54,1.3A10.26,10.26,0,0,1,187.57,260.46Z"/><rect class="cls-1_slot-machine-52 targetColor" x="206.91" y="238.69" width="40.85" height="54.47" style="fill: rgb(104, 225, 253);"/><path class="cls-2_slot-machine-52" d="M247.76,293.8H206.91a.64.64,0,0,1-.64-.64V238.69a.64.64,0,0,1,.64-.63h40.85a.63.63,0,0,1,.64.63v54.47A.64.64,0,0,1,247.76,293.8Zm-40.21-1.28h39.57V239.33H207.55Z"/><path class="cls-4_slot-machine-52" d="M227.75,256.82s-7.93-6.11-14.18.91.09,19,2.07,21.28a11.6,11.6,0,0,0,6.09,4c2.44.54,4.59-1.75,4.89-1.75s.52,2.65,5.7,1.82,12.05-9.82,11.44-18.67-5.49-9-9-8.54Z"/><path class="cls-2_slot-machine-52" d="M230.47,284c-2.36,0-3.43-.89-4-1.74-.94.68-2.77,1.94-4.86,1.48a12.25,12.25,0,0,1-6.47-4.25c-2.28-2.63-8.6-14.88-2.07-22.21,6-6.7,13.45-2.15,14.89-1.17l6.75-.88c2-.27,4.61-.35,6.66,1.32,1.82,1.49,2.86,4.13,3.12,7.86.62,8.91-6.25,18.49-12,19.42A13.79,13.79,0,0,1,230.47,284Zm-3.85-3.39a1,1,0,0,1,.81.59c.31.55,1,1.84,4.78,1.24,4.62-.74,11.45-9.24,10.85-17.93-.23-3.33-1.1-5.64-2.6-6.87s-3.86-1.26-5.6-1l-7,.92a.75.75,0,0,1-.52-.14c-.3-.23-7.49-5.61-13.23.83s0,18,2.08,20.35a10.91,10.91,0,0,0,5.71,3.81c1.56.34,3-.74,3.83-1.32C226.12,280.74,226.32,280.59,226.62,280.59Z"/><path class="cls-2_slot-machine-52" d="M228.24,260.06h-.07a.69.69,0,0,1-.62-.77A16.87,16.87,0,0,0,224.43,249a.7.7,0,1,1,1.15-.8,17.88,17.88,0,0,1,3.36,11.26A.7.7,0,0,1,228.24,260.06Z"/><path class="cls-2_slot-machine-52" d="M228.42,260.46a6,6,0,0,1-2.48-.5,3.9,3.9,0,0,1-2-1.78.71.71,0,0,1,.44-.89.7.7,0,0,1,.86.39c.11.16,1.76,2.59,6.49.62a.7.7,0,0,1,.92.38.72.72,0,0,1-.38.92A10.26,10.26,0,0,1,228.42,260.46Z"/><rect class="cls-1_slot-machine-52 targetColor" x="247.76" y="238.69" width="40.85" height="54.47" style="fill: rgb(104, 225, 253);"/><path class="cls-2_slot-machine-52" d="M288.61,293.8H247.76a.64.64,0,0,1-.64-.64V238.69a.64.64,0,0,1,.64-.63h40.85a.63.63,0,0,1,.64.63v54.47A.64.64,0,0,1,288.61,293.8Zm-40.21-1.28H288V239.33H248.4Z"/><path class="cls-4_slot-machine-52" d="M268.6,256.82s-7.93-6.11-14.18.91.09,19,2.07,21.28a11.57,11.57,0,0,0,6.09,4c2.44.54,4.59-1.75,4.89-1.75s.52,2.65,5.7,1.82,12.05-9.82,11.44-18.67-5.49-9-9-8.54Z"/><path class="cls-2_slot-machine-52" d="M271.32,284c-2.36,0-3.44-.89-4-1.74-.94.68-2.77,1.94-4.86,1.48a12.21,12.21,0,0,1-6.47-4.25c-2.28-2.63-8.6-14.88-2.07-22.21,6-6.7,13.45-2.15,14.89-1.17l6.74-.88c2-.27,4.62-.35,6.67,1.32,1.81,1.49,2.86,4.13,3.12,7.86.62,8.91-6.25,18.49-12,19.42A13.55,13.55,0,0,1,271.32,284Zm-3.85-3.39a1,1,0,0,1,.81.59c.31.55,1.06,1.84,4.78,1.24,4.62-.74,11.45-9.24,10.85-17.93-.23-3.33-1.1-5.64-2.6-6.87s-3.86-1.26-5.61-1l-7,.92a.74.74,0,0,1-.52-.14c-.3-.23-7.49-5.62-13.23.83s.05,18,2.08,20.35a10.91,10.91,0,0,0,5.71,3.81c1.56.34,3-.74,3.83-1.32C267,280.74,267.17,280.59,267.47,280.59Z"/><path class="cls-2_slot-machine-52" d="M269.09,260.06H269a.7.7,0,0,1-.63-.77A16.74,16.74,0,0,0,265.28,249a.7.7,0,1,1,1.15-.8,17.88,17.88,0,0,1,3.36,11.26A.7.7,0,0,1,269.09,260.06Z"/><path class="cls-2_slot-machine-52" d="M269.27,260.46a6,6,0,0,1-2.48-.5,3.9,3.9,0,0,1-2-1.78.7.7,0,0,1,1.3-.5c.11.16,1.76,2.59,6.49.62a.71.71,0,0,1,.92.38.72.72,0,0,1-.38.92A10.26,10.26,0,0,1,269.27,260.46Z"/><path class="cls-2_slot-machine-52" d="M148.89,317.6v4.69c0,2.59,5.82,4.69,13,4.69s13-2.1,13-4.69V317.6Z"/><path class="cls-2_slot-machine-52" d="M161.89,327.68c-6.64,0-13.7-1.89-13.7-5.39V317.6a.7.7,0,0,1,.7-.7h26a.7.7,0,0,1,.7.7v4.69C175.59,325.79,168.53,327.68,161.89,327.68Zm-12.3-9.38v4c0,1.89,5,4,12.3,4s12.3-2.1,12.3-4v-4Z"/><ellipse class="cls-4_slot-machine-52" cx="161.89" cy="317.6" rx="13" ry="4.69"/><path class="cls-2_slot-machine-52" d="M161.89,323c-6.64,0-13.7-1.89-13.7-5.39s7.06-5.39,13.7-5.39,13.7,1.89,13.7,5.39S168.53,323,161.89,323Zm0-9.38c-7.25,0-12.3,2.1-12.3,4s5,4,12.3,4,12.3-2.11,12.3-4S169.14,313.61,161.89,313.61Z"/><path class="cls-2_slot-machine-52" d="M180.91,317.6v4.69c0,2.59,5.82,4.69,13,4.69s13-2.1,13-4.69V317.6Z"/><path class="cls-2_slot-machine-52" d="M193.91,327.68c-6.64,0-13.7-1.89-13.7-5.39V317.6a.7.7,0,0,1,.7-.7h26a.7.7,0,0,1,.7.7v4.69C207.61,325.79,200.55,327.68,193.91,327.68Zm-12.3-9.38v4c0,1.89,5,4,12.3,4s12.3-2.1,12.3-4v-4Z"/><ellipse class="cls-4_slot-machine-52" cx="193.91" cy="317.6" rx="13" ry="4.69"/><path class="cls-2_slot-machine-52" d="M193.91,323c-6.64,0-13.7-1.89-13.7-5.39s7.06-5.39,13.7-5.39,13.7,1.89,13.7,5.39S200.55,323,193.91,323Zm0-9.38c-7.25,0-12.3,2.1-12.3,4s5,4,12.3,4,12.3-2.11,12.3-4S201.16,313.61,193.91,313.61Z"/><rect class="cls-4_slot-machine-52" x="264.29" y="318.64" width="39.9" height="8.24"/><path class="cls-2_slot-machine-52" d="M304.18,327.59H264.29a.7.7,0,0,1-.7-.7v-8.25a.7.7,0,0,1,.7-.7h39.89a.7.7,0,0,1,.7.7v8.25A.7.7,0,0,1,304.18,327.59ZM265,326.19h38.49v-6.85H265Z"/><polygon class="cls-4_slot-machine-52" points="301.56 313.92 266.91 313.92 264.29 318.64 304.18 318.64 301.56 313.92"/><path class="cls-2_slot-machine-52" d="M304.18,319.34H264.29a.72.72,0,0,1-.61-.34.73.73,0,0,1,0-.7l2.63-4.72a.7.7,0,0,1,.61-.36h34.65a.7.7,0,0,1,.61.36l2.63,4.72a.73.73,0,0,1,0,.7A.72.72,0,0,1,304.18,319.34Zm-38.7-1.4H303l-1.84-3.32H267.32Z"/><path class="cls-2_slot-machine-52" d="M299.91,323.46H268.32a.7.7,0,0,1,0-1.4h31.59a.7.7,0,0,1,0,1.4Z"/><path class="cls-2_slot-machine-52" d="M204.5,376.15h45.67a5.19,5.19,0,0,1,5.19,5.19v22.49a0,0,0,0,1,0,0h-56a0,0,0,0,1,0,0V381.33A5.19,5.19,0,0,1,204.5,376.15Z"/><path class="cls-4_slot-machine-52" d="M366.29,182.9h-.11a.7.7,0,0,1-.58-.8c1.42-9.06-7.24-11.24-7.61-11.33a.7.7,0,1,1,.32-1.36c.11,0,10.3,2.55,8.67,12.91A.71.71,0,0,1,366.29,182.9Z"/><path class="cls-3_slot-machine-52" d="M151,309.83a.71.71,0,0,1-.51-1.19l5.18-5.35a.7.7,0,0,1,1,1l-5.18,5.34A.68.68,0,0,1,151,309.83Z"/><path class="cls-3_slot-machine-52" d="M156.21,228.78a.72.72,0,0,1-.51-.22l-5.18-5.35a.7.7,0,1,1,1-1l5.18,5.35a.71.71,0,0,1-.5,1.19Z"/><path class="cls-3_slot-machine-52" d="M298.47,228.78a.71.71,0,0,1-.5-1.19l5.18-5.35a.7.7,0,1,1,1,1L299,228.56A.72.72,0,0,1,298.47,228.78Z"/><path class="cls-3_slot-machine-52" d="M302.56,307.15a.65.65,0,0,1-.38-.11l-4.09-2.68a.7.7,0,0,1,.76-1.17l4.09,2.68a.7.7,0,0,1,.21,1A.72.72,0,0,1,302.56,307.15Z"/><circle class="cls-4_slot-machine-52" cx="160.68" cy="345.89" r="1.55"/><circle class="cls-4_slot-machine-52" cx="294" cy="345.89" r="1.55"/><circle class="cls-4_slot-machine-52" cx="160.68" cy="364.61" r="1.55"/><circle class="cls-4_slot-machine-52" cx="294" cy="364.61" r="1.55"/><path class="cls-3_slot-machine-52" d="M258,119.26h0l-8.12-.22a.7.7,0,0,1-.68-.72.67.67,0,0,1,.72-.68l8.11.22a.7.7,0,0,1,0,1.4Z"/><path class="cls-3_slot-machine-52" d="M246.74,110.3a.7.7,0,0,1-.62-.37.71.71,0,0,1,.3-1c1.55-.81,9.3-4.86,10-5.1a.69.69,0,0,1,.89.42.71.71,0,0,1-.42.9c-.51.18-6.29,3.18-9.82,5A.67.67,0,0,1,246.74,110.3Z"/><path class="cls-3_slot-machine-52" d="M241.54,103.08a.67.67,0,0,1-.41-.13.69.69,0,0,1-.16-1l4.44-6.14a.69.69,0,0,1,1-.16.71.71,0,0,1,.16,1l-4.45,6.14A.68.68,0,0,1,241.54,103.08Z"/><path class="cls-3_slot-machine-52" d="M198,119.26a.7.7,0,0,1,0-1.4l8.11-.22h0a.7.7,0,0,1,0,1.4l-8.11.22Z"/><path class="cls-3_slot-machine-52" d="M209.23,110.3a.67.67,0,0,1-.33-.08c-3.52-1.84-9.31-4.84-9.82-5a.71.71,0,0,1-.42-.9.69.69,0,0,1,.89-.42c.7.24,8.46,4.29,10,5.1a.7.7,0,0,1-.32,1.32Z"/><path class="cls-3_slot-machine-52" d="M214.44,103.08a.7.7,0,0,1-.57-.29l-4.44-6.14a.7.7,0,1,1,1.13-.82L215,102a.7.7,0,0,1-.15,1A.71.71,0,0,1,214.44,103.08Z"/><path class="cls-4_slot-machine-52" d="M236.91,119.24a.7.7,0,0,1-.7-.66c-.2-3.82-1.11-6.49-2.68-7.94a9.85,9.85,0,0,0-2.83-1.78.7.7,0,1,1,.53-1.29,11.05,11.05,0,0,1,3.25,2c1.85,1.7,2.9,4.69,3.13,8.89a.7.7,0,0,1-.66.74Z"/><path class="cls-4_slot-machine-52" d="M228,108.1h-.11a11.74,11.74,0,0,0-3-.11.7.7,0,0,1-.16-1.4,14.28,14.28,0,0,1,3.35.13.7.7,0,0,1-.1,1.39Z"/><path class="cls-2_slot-machine-52" d="M326.4,392.5H128.28a.64.64,0,0,1-.64-.64.64.64,0,0,1,.64-.64H326.4a.64.64,0,0,1,.64.64A.64.64,0,0,1,326.4,392.5Z"/></g></svg>